<svg width="17" height="16" viewBox="0 0 17 16" fill="none" xmlns="http://www.w3.org/2000/svg">
<g clip-path="url(#clip0_141_7256)">
<g clip-path="url(#clip1_141_7256)">
<path d="M-318.23 -24.0008H-305.73M-305.73 -24.0008L-310.48 -28.2508M-305.73 -24.0008L-310.48 -19.7508M-18.5305 -24.0008H-23.9805M-23.9805 -24.0008V-18.5508M-23.9805 -24.0008H-29.4055M-23.9805 -24.0008V-29.4258M12.0195 5.99922L8.48953 9.44022C8.33767 9.58829 8.13323 9.67 7.92114 9.66737C7.70906 9.66475 7.50667 9.578 7.35852 9.42622L4.01953 5.99922M-27.9805 9.99922L-24.4505 6.55822C-24.2986 6.41014 -24.0942 6.32844 -23.8821 6.33106C-23.67 6.33369 -23.4676 6.42043 -23.3195 6.57222L-19.9805 9.99922" stroke="#F8E2D4" stroke-width="1.2" stroke-linecap="round" stroke-linejoin="round"/>
<path d="M-154.051 -29.5781L-149.037 -24.5641C-148.962 -24.4899 -148.903 -24.4018 -148.863 -24.3047C-148.823 -24.2077 -148.802 -24.1037 -148.802 -23.9986C-148.802 -23.8936 -148.823 -23.7896 -148.863 -23.6925C-148.903 -23.5955 -148.962 -23.5073 -149.037 -23.4331L-154.051 -18.4191M-50.3988 -26.0641L-55.4128 -21.0501C-55.5628 -20.9002 -55.7662 -20.816 -55.9783 -20.816C-56.1904 -20.816 -56.3937 -20.9002 -56.5438 -21.0501L-61.5578 -26.0641M-93.5208 -21.9401L-88.5068 -26.9541C-88.4325 -27.0285 -88.3442 -27.0875 -88.2471 -27.1278C-88.15 -27.168 -88.0459 -27.1888 -87.9408 -27.1888C-87.8356 -27.1888 -87.7315 -27.168 -87.6344 -27.1278C-87.5373 -27.0875 -87.4491 -27.0285 -87.3748 -26.9541L-82.3608 -21.9401M-118.024 -18.4191L-123.038 -23.4331C-123.188 -23.5831 -123.272 -23.7865 -123.272 -23.9986C-123.272 -24.2107 -123.188 -24.4141 -123.038 -24.5641L-118.024 -29.5781M-89.9808 11.9999L-86.5398 8.46988C-86.3917 8.31801 -86.31 8.11356 -86.3126 7.90147C-86.3152 7.68939 -86.402 7.48702 -86.5538 7.33887L-89.9808 3.99987M-53.9808 11.9999L-57.4218 8.46988C-57.5699 8.31801 -57.6516 8.11356 -57.6489 7.90147C-57.6463 7.68939 -57.5596 7.48702 -57.4078 7.33887L-53.9808 3.99987M44.5192 -19.4501L39.9692 -24.0001M39.9692 -24.0001L35.4192 -19.4501M39.9692 -24.0001L44.4692 -28.5501M39.9692 -24.0001L35.4192 -28.5501" stroke="#F8E2D4" stroke-width="1.2" stroke-linecap="round" stroke-linejoin="round"/>
<path d="M41.0195 5L43.4605 7.504C43.6086 7.65586 43.6903 7.86031 43.6877 8.0724C43.6851 8.28449 43.5983 8.48685 43.4465 8.635L41.0195 11M37.0195 5L39.4605 7.504C39.6086 7.65586 39.6903 7.86031 39.6877 8.0724C39.6851 8.28449 39.5983 8.48685 39.4465 8.635L37.0195 11M72.0195 5L69.5785 7.504C69.4304 7.65586 69.3488 7.86031 69.3514 8.0724C69.354 8.28449 69.4407 8.48685 69.5925 8.635L72.0195 11M76.0195 5L73.5785 7.504C73.4304 7.65586 73.3488 7.86031 73.3514 8.0724C73.354 8.28449 73.4407 8.48685 73.5925 8.635L76.0195 11M-189.73 -18.1H-178.18M-183.98 -30.25V-20.75M-183.98 -20.75L-180.53 -24.7M-183.98 -20.75L-187.43 -24.7" stroke="#F8E2D4" stroke-width="1.2" stroke-linecap="round" stroke-linejoin="round"/>
<path d="M-217.929 32.75L-217.429 34.45M-217.429 34.45C-215.929 34.05 -214.496 34.233 -213.129 35M-217.429 34.45C-218.996 34.85 -220.196 35.733 -221.029 37.1M-213.129 35C-211.729 35.8 -210.829 36.983 -210.429 38.55M-213.129 35L-214.779 37.75M-221.029 37.1L-218.279 38.7M-221.029 37.1C-221.796 38.467 -221.979 39.933 -221.579 41.5M-210.429 38.55L-208.729 38.1M-210.429 38.55C-209.996 40.117 -210.196 41.583 -211.029 42.95M-214.779 37.75C-214.179 38.183 -213.796 38.717 -213.629 39.35C-213.429 40.017 -213.496 40.667 -213.829 41.3M-214.779 37.75C-215.354 37.4198 -216.037 37.33 -216.679 37.5C-217.379 37.7 -217.912 38.1 -218.279 38.7M-211.029 42.95C-211.796 44.283 -212.946 45.15 -214.479 45.55M-211.029 42.95L-213.829 41.3M-214.479 45.55L-214.079 47.25M-214.479 45.55C-216.046 45.983 -217.529 45.817 -218.929 45.05M-213.829 41.3C-214.196 41.867 -214.729 42.233 -215.429 42.4C-216.062 42.567 -216.696 42.5 -217.329 42.2M-218.929 45.05C-220.296 44.25 -221.179 43.067 -221.579 41.5M-218.929 45.05L-217.329 42.2M-218.279 38.7C-218.609 39.2757 -218.699 39.9584 -218.529 40.6C-218.329 41.3 -217.929 41.833 -217.329 42.2M-221.579 41.5L-223.229 41.95M107.37 12L110.804 8.566C110.879 8.49177 110.938 8.40356 110.978 8.30643C111.019 8.2093 111.04 8.10517 111.04 8C111.04 7.89483 111.019 7.7907 110.978 7.69357C110.938 7.59644 110.879 7.50823 110.804 7.434L107.37 4M100.67 12L97.2365 8.566C97.162 8.49177 97.1029 8.40356 97.0625 8.30643C97.0222 8.2093 97.0014 8.10517 97.0014 8C97.0014 7.89483 97.0222 7.7907 97.0625 7.69357C97.1029 7.59644 97.162 7.50823 97.2365 7.434L100.67 4" stroke="#F8E2D4" stroke-width="1.2" stroke-linecap="round" stroke-linejoin="round"/>
<path d="M-317.172 3.19844L-316.172 6.72344M-316.172 6.72344L-312.547 5.82344M-316.172 6.72344C-315.655 4.52544 -313.608 3.02344 -311.372 3.02344C-308.632 3.02344 -306.372 5.28244 -306.372 8.02344C-306.372 10.7484 -308.648 13.0234 -311.372 13.0234C-313.537 13.0234 -315.548 11.5714 -316.152 9.49344M-86.8809 46.0344C-85.7739 45.8444 -84.8409 44.9284 -84.6269 43.8264M-86.8809 46.0344C-86.8809 46.3674 -87.1519 46.6374 -87.4849 46.6374H-88.4959C-88.8289 46.6374 -89.0989 46.3674 -89.0989 46.0344C-89.0989 45.8745 -89.0354 45.7211 -88.9223 45.608C-88.8092 45.495 -88.6558 45.4314 -88.4959 45.4314H-87.4849C-87.3249 45.4314 -87.1714 45.4949 -87.0581 45.608C-86.9449 45.721 -86.8811 45.8744 -86.8809 46.0344ZM-83.8439 41.5584C-83.3299 40.7924 -83.0729 39.9194 -83.0729 38.9404C-83.0729 36.3544 -85.1889 34.1384 -87.7979 34.1384C-90.4099 34.1384 -92.5229 36.3454 -92.5229 38.9404C-92.5229 39.9144 -92.2729 40.7834 -91.7749 41.5464M-83.8439 41.5584V40.3624C-83.8439 40.2231 -83.8713 40.0852 -83.9247 39.9566C-83.978 39.8279 -84.0562 39.711 -84.1547 39.6126C-84.2532 39.5141 -84.3702 39.4361 -84.4989 39.3828C-84.6277 39.3296 -84.7656 39.3023 -84.9049 39.3024C-85.186 39.3024 -85.4556 39.4141 -85.6544 39.6129C-85.8532 39.8117 -85.9649 40.0813 -85.9649 40.3624V42.8024C-85.9649 43.3874 -85.4899 43.8624 -84.9049 43.8624C-84.7656 43.8626 -84.6277 43.8352 -84.4989 43.782C-84.3702 43.7288 -84.2532 43.6508 -84.1547 43.5523C-84.0562 43.4539 -83.978 43.337 -83.9247 43.2083C-83.8713 43.0796 -83.8439 42.9417 -83.8439 42.8024V41.5584ZM-91.7749 41.5464V40.3624C-91.7749 39.7774 -91.2999 39.3024 -90.7139 39.3024C-90.1289 39.3024 -89.6539 39.7764 -89.6539 40.3624V42.8024C-89.6539 43.0836 -89.7656 43.3532 -89.9643 43.552C-90.1631 43.7508 -90.4328 43.8624 -90.7139 43.8624C-90.8532 43.8626 -90.9911 43.8352 -91.1198 43.782C-91.2485 43.7288 -91.3655 43.6508 -91.4641 43.5523C-91.5626 43.4539 -91.6408 43.337 -91.6941 43.2083C-91.7474 43.0796 -91.7749 42.9417 -91.7749 42.8024V41.5464ZM12.4531 -23.9766H4.02814" stroke="#F8E2D4" stroke-width="1.2" stroke-linecap="round" stroke-linejoin="round"/>
</g>
</g>
<defs>
<clipPath id="clip0_141_7256">
<rect width="16" height="16" fill="white" transform="translate(0.0195312)"/>
</clipPath>
<clipPath id="clip1_141_7256">
<rect width="496" height="208" fill="white" transform="translate(-319.98 -32)"/>
</clipPath>
</defs>
</svg>
